<?xml version="1.0" encoding="UTF-8"?>
<svg id="_レイヤー_2" xmlns="http://www.w3.org/2000/svg" version="1.1" viewBox="0 0 140 30">
  <!-- Generator: Adobe Illustrator 29.8.2, SVG Export Plug-In . SVG Version: 2.1.1 Build 3)  -->
  <defs>
    <style>
      .st0 {
        fill: none;
      }

      .st1 {
        fill: #fff;
      }
    </style>
  </defs>
  <g id="_レイヤー_1-2">
    <g>
      <path class="st1" d="M29.4.9c0-.5-.4-.9-.9-.9h-7c-.5,0-.9.4-.9.9v7.5c0,10.4,3.2,17.8,4.5,20.5.3.7,1,1.1,1.8,1.1h7.2c.7,0,1.1-.8.8-1.4-4.6-8-5.5-14.5-5.4-27.7h0ZM13.7,0h-7c-.5,0-.9.4-.9.9.1,13.2-.8,19.7-5.4,27.7-.3.6,0,1.4.8,1.4h7.2c.7,0,1.4-.4,1.8-1.1,1.3-2.7,4.5-10.1,4.5-20.5V.9c0-.5-.4-.9-.9-.9h0ZM39.5,7.3h2.7c.5,0,.9-.4.9-.9V.9c0-.5-.4-.9-.9-.9h-2.7c-.5,0-.9.4-.9.9v5.5c0,.5.4.9.9.9ZM35.9,0h-2.7c-.5,0-.9.4-.9.9v5.5c0,.5.4.9.9.9h2.7c.5,0,.9-.4.9-.9V.9c0-.5-.4-.9-.9-.9ZM138.1,16c-2.8,2.3-5.5,3.7-6.8,4.3-.4.1-.7-.1-.7-.5V.9c0-.5-.4-.9-.9-.9h-7c-.5,0-.9.4-.9.9v27.8c0,.7.6,1.3,1.3,1.3,2.7-.1,9.2-.9,15.8-5.9.5-.4.8-1,.8-1.7v-5.6c0-.8-1-1.3-1.6-.8h0ZM117.3,0h-7c-.5,0-.9.4-.9.9.1,13.2-.8,19.7-5.4,27.7-.3.6,0,1.4.8,1.4h7.2c.7,0,1.4-.4,1.8-1.1,1.3-2.7,4.5-10.1,4.5-20.5V.9c0-.5-.4-.9-.9-.9h0ZM101.1,4.8h-17.2c-.3,0-.5-.2-.5-.5V.9c0-.5-.4-.9-.9-.9h-6.4c-.5,0-.9.4-.9.9v3.3c0,.3-.2.5-.5.5h-4.3c-.5,0-.9.4-.9.9v5.2c0,.5.4.9.9.9h4.3c.3,0,.5.2.5.5v8.6c0,5,4.1,9.1,9.1,9.1h15.3c.5,0,.9-.4.9-.9v-5.2c0-.5-.4-.9-.9-.9h-12.9c-1.8,0-3.3-1.5-3.3-3.3v-7.4c0-.3.2-.5.5-.5h8.5c.4,0,.5.4.3.7-.7.6-1.4,1.1-1.9,1.4-.4.2-.6.7-.6,1.1v3.9c0,1,1,1.6,1.9,1.2,5.1-2.5,7.9-5.2,10-7.7.3-.4.4-.8.4-1.2v-5.1c0-.7-.6-1.3-1.3-1.3h0ZM67.6,0h-7.3c-.6,0-1.1.3-1.4.7-1.5,2.2-6.8,8.7-20.3,12.9-.4.1-.7.5-.7.9v5.8c0,.6.6,1,1.2.9,4.2-1.2,7.8-2.5,11-4,.4-.2.8.1.8.5v11.2c0,.5.4.9.9.9h6.9c.5,0,.9-.4.9-.9V11.9c0-.3.1-.6.4-.8,3.4-2.9,6-6.1,8.3-9.5C68.8.9,68.3,0,67.6,0h0Z"/>
      <rect class="st0" width="140" height="30"/>
    </g>
  </g>
</svg>